<svg height="512" viewBox="0 0 64 64" width="512" xmlns="http://www.w3.org/2000/svg"><g id="Fill_Outline" data-name="Fill Outline"><g id="Color"><g><g><path d="m25.348 6.46a2.075 2.075 0 0 0 -.4 2.633l2.947 5.1-3.7 5.6-2.326 1.343a6 6 0 1 0 -5.74 3.314l-.887.512a5.991 5.991 0 0 0 -2.242 2.286l-4.03 7.258a3 3 0 0 0 .025 2.956l3.6 6.23a2.075 2.075 0 0 0 2.481.969 2 2 0 0 0 1.037-2.876l-3-5.2 3.7-5.6 9.5 16.454-3.694 7.919a2.884 2.884 0 0 0 1.211 3.8 2.815 2.815 0 0 0 3.809-1.255l4.422-8.943a4 4 0 0 0 -.122-3.773l-3.273-5.668h7.115l5.011 7.158a2.884 2.884 0 0 0 3.893.85 2.814 2.814 0 0 0 .817-3.926l-5.533-8.3a4 4 0 0 0 -3.329-1.781h-4.51l-4.93-8.529 4.836-8.711a3 3 0 0 0 -.025-2.957l-3.653-6.323a2 2 0 0 0 -3.01-.54z" fill="#f9e109"/><path d="m45.494 43.6-5.533-8.3a4 4 0 0 0 -3.329-1.781h-4.51l-.924-1.6-10.393 6 5.5 9.526-3.694 7.919a2.884 2.884 0 0 0 1.211 3.8 2.815 2.815 0 0 0 3.809-1.255l4.421-8.943a4 4 0 0 0 -.121-3.773l-3.273-5.668h7.115l5.011 7.158a2.884 2.884 0 0 0 3.893.85 2.814 2.814 0 0 0 .817-3.933z" fill="#a1d51c"/><path d="m37.961 36.3a4 4 0 0 0 -3.328-1.781h-1.047a6 6 0 0 1 -5.2-3l-1.751-3.034a5.093 5.093 0 0 1 -.043-5.016l3.437-6.191a3 3 0 0 0 -.025-2.957l-3.646-6.321a1.99 1.99 0 0 0 -1.472-.974 2.156 2.156 0 0 0 .061 2.067l2.947 5.1-2.849 4.315a15.515 15.515 0 0 1 -1.931 2.375l-.892.9a1.084 1.084 0 0 1 -.778.324h-.026a1.092 1.092 0 0 1 -1.063-1.334 5.992 5.992 0 0 0 -7.489-7.073 6 6 0 0 0 3.265 10.754l-.887.512a5.991 5.991 0 0 0 -2.244 2.282l-4.03 7.258a3 3 0 0 0 .025 2.956l3.594 6.224a2.152 2.152 0 0 0 2.605.925 2 2 0 0 0 .916-2.826l-3-5.2 3.7-5.6 9.5 16.454-3.694 7.919a2.884 2.884 0 0 0 1.211 3.8 2.815 2.815 0 0 0 3.809-1.255l4.421-8.943a4 4 0 0 0 -.121-3.773l-3.273-5.668h7.115l5.011 7.158a2.981 2.981 0 0 0 2.526 1.268 2.8 2.8 0 0 0 .184-3.344z" fill="#fcbc04"/><path d="m12 10.67a7.991 7.991 0 0 0 -.674 13.415l9.657-12.738a8 8 0 0 0 -8.983-.677z" fill="#f89c8d"/><path d="m43.494 44.6-5.533-8.3a4 4 0 0 0 -3.328-1.781h-1.047a6 6 0 0 1 -4.086-1.619l-8.693 5.019 5.5 9.526-3.694 7.919a2.885 2.885 0 0 0 1.211 3.8 2.815 2.815 0 0 0 3.809-1.255l4.421-8.943a4 4 0 0 0 -.121-3.773l-3.273-5.668h7.115l5.011 7.158a2.981 2.981 0 0 0 2.526 1.268 2.8 2.8 0 0 0 .182-3.351z" fill="#7ab92d"/><path d="m19.171 35.285h6a0 0 0 0 1 0 0v3a3 3 0 0 1 -3 3 3 3 0 0 1 -3-3v-3a0 0 0 0 1 0 0z" fill="#57b7eb" transform="matrix(.866 -.5 .5 .866 -16.172 16.215)"/><path d="m24.671 38.883a3 3 0 0 1 -4.1-1.1l-.884-1.531-1.616.933 1.5 2.6a3 3 0 0 0 4.1 1.1 2.994 2.994 0 0 0 1.487-2.35 3.03 3.03 0 0 1 -.487.348z" fill="#4891d3"/><path d="m14.36 14.789a23.326 23.326 0 0 1 -6.171 1.128 7.96 7.96 0 0 0 3.138 8.168l9.4-12.393a22.372 22.372 0 0 1 -6.367 3.097z" fill="#f8664f"/></g><path d="m23 3 3 4 11 4v6l7 6-4 7 10 9-5 9 1 8 5 4 10 1v-58z" fill="#57b7eb"/><path d="m41 3 6 4 4-4z" fill="#aae1f9"/><path d="m56 13-4 4 9 9v-23h-4l-4 6z" fill="#aae1f9"/><path d="m57 52-3-2 1-7-8-14v-10l-3-2v-4l-9-7-.5-3h-11.5l3 4 11 4v6l7 6-4 7 10 9-5 9 1 8 5 4 10 1v-3.667z" fill="#4891d3"/><path d="m50 29 2-4 7 2-6 3z" fill="#4891d3"/><path d="m61 7.5-5 9.5 5 5.203z" fill="#57b7eb"/></g></g><g id="Outline_copy" data-name="Outline copy"><g fill="#39519d"><path d="m61.1 60.005-9.706-.971-4.452-3.561-.909-7.273 4.267-7.68 4.076 3.261a1 1 0 1 0 1.25-1.562l-4.98-3.984-2.263-2.035a1 1 0 0 0 -1.338 1.486l1.694 1.525-2.275 4.1c-.048-.085-.083-.176-.138-.258l-5.533-8.3a4.99 4.99 0 0 0 -4.16-2.226h-3.933l-2.18-3.779a1 1 0 0 0 -1.733 1l1.045 1.811-5.195 3-.5-.866a1 1 0 0 0 -1.366-.366l-2.6 1.5-2.5-4.33a1 1 0 0 0 -.836-.5.908.908 0 0 0 -.865.449l-3.7 5.6a1 1 0 0 0 -.031 1.051l3 5.2a1 1 0 0 1 -.525 1.441 1.084 1.084 0 0 1 -1.26-.534l-3.6-6.23a2.011 2.011 0 0 1 -.016-1.971l4.029-7.259a5 5 0 0 1 1.871-1.9l.887-.513a1 1 0 0 0 -.438-1.863 5 5 0 0 1 -2.487-.851l6.021-7.943a4.949 4.949 0 0 1 1.249 6.033 1 1 0 0 0 1.401 1.293l2.329-1.339a1 1 0 0 0 .335-.316l3.7-5.6a1 1 0 0 0 .025-1.045l-2.947-5.1a1.2 1.2 0 0 1 -.149-.651l2.636.951 2.843 4.922a2.014 2.014 0 0 1 .016 1.971l-4.836 8.711a1 1 0 0 0 .008.986l.455.788a1 1 0 0 0 1.733-1l-.172-.3 4.56-8.216a4.023 4.023 0 0 0 -.032-3.942l-1.651-2.856 4.776 1.736v5.3a1 1 0 0 0 .35.759l6.372 5.462-3.59 6.279a1 1 0 0 0 .2 1.239l5 4.5a1 1 0 0 0 1.338-1.486l-4.4-3.961 3.582-6.269 1.981-2.972a1 1 0 1 0 -1.664-1.11l-1.374 2.061-5.795-4.962v-4.152l4.684 1.561a1 1 0 0 0 .632-1.9l-5.985-2-10.71-3.887-2.821-3.762a1 1 0 1 0 -1.6 1.2l2 2.664a3.129 3.129 0 0 0 -.117 3.329l2.638 4.568-3.226 4.885-.016.01a6.927 6.927 0 0 0 -2.541-5.99l.845-1.115a1 1 0 0 0 -.174-1.387 9.076 9.076 0 0 0 -2.185-1.277l-1.445-6.5a1 1 0 0 0 -1.954.434l1.218 5.479a8.984 8.984 0 0 0 -6.5 16.193 1 1 0 0 0 1.381-.207l.377-.5a6.957 6.957 0 0 0 1.169.67 7 7 0 0 0 -1.545 1.9l-4.025 7.264a4.02 4.02 0 0 0 .032 3.942l3.6 6.23a3.153 3.153 0 0 0 2.7 1.586c.063 0 .127-.013.19-.017a43.219 43.219 0 0 1 -9.193 11.708l-3.1 2.788a1 1 0 1 0 1.338 1.486l3.1-2.788a45.228 45.228 0 0 0 10.986-14.995c.474-1.042.9-2.116 1.293-3.2a3.993 3.993 0 0 0 6.59-4.474l5.2-3 .425.736a1 1 0 0 0 .866.5h4.511a3 3 0 0 1 2.5 1.335l5.533 8.3a1.8 1.8 0 0 1 .268 1.37 1.829 1.829 0 0 1 -.8 1.165 1.879 1.879 0 0 1 -2.526-.587l-5.011-7.158a1 1 0 0 0 -.82-.426h-7.124a1 1 0 0 0 -.866 1.5l3.272 5.668a2.993 2.993 0 0 1 .092 2.83l-4.422 8.943a1.8 1.8 0 0 1 -1.051.916 1.824 1.824 0 0 1 -1.411-.11 1.882 1.882 0 0 1 -.754-2.481l3.693-7.919a1 1 0 0 0 -.04-.923l-1.782-3.089a1 1 0 0 0 -1.733 1l1.523 2.638-3.474 7.447a3.812 3.812 0 0 0 3.405 5.531 3.821 3.821 0 0 0 3.417-2.123l4.422-8.943a4.993 4.993 0 0 0 -.152-4.717l-2.406-4.168h4.862l4.712 6.731a3.944 3.944 0 0 0 4.135 1.583l.911 7.289a1 1 0 0 0 .367.657l5 4a1 1 0 0 0 .522.219l10 1a.875.875 0 0 0 .1 0 1 1 0 0 0 .1-1.995zm-49.94-37.355a6.9 6.9 0 0 1 -1.221-1.55 7.008 7.008 0 0 1 2.561-9.563 6.935 6.935 0 0 1 5.675-.579 1.122 1.122 0 0 0 .125.042 7.011 7.011 0 0 1 1.259.573zm3.124 13.974 2.464-3.732 1.691 2.929-.866.5a1 1 0 0 0 -.366 1.366l.493.855q-.4 1.246-.882 2.47zm9.816 2.176a1.992 1.992 0 0 1 -.933 1.214 2 2 0 0 1 -2.732-.732l-1-1.732 3.464-2 1 1.732a1.99 1.99 0 0 1 .201 1.518z"/><path d="m56.242 25.03-4-1a1 1 0 0 0 -1.137.523l-2 4a1 1 0 0 0 1.79.894l1.641-3.282 3.222.8a1 1 0 1 0 .484-1.94z"/><path d="m53.293 49.293-3 3a1 1 0 1 0 1.414 1.414l2.42-2.42 2.318 1.545a1 1 0 1 0 1.11-1.664l-3-2a1 1 0 0 0 -1.262.125z"/><path d="m54.68 12.906-3.387 3.387a1 1 0 0 0 0 1.414l5 5a1 1 0 0 0 1.414-1.414l-4.293-4.293 3.293-3.293a1 1 0 0 0 .093-1.307l-2.575-3.434 3.607-5.411a1 1 0 0 0 -1.664-1.11l-4 6a1 1 0 0 0 .032 1.155z"/><path d="m46.445 7.832a1 1 0 0 0 1.262-.125l4-4a1 1 0 1 0 -1.414-1.414l-3.42 3.42-5.318-3.545a1 1 0 0 0 -1.11 1.664z"/></g></g></g></svg>