<?xml version="1.0" encoding="iso-8859-1"?>
<!-- Generator: Adobe Illustrator 19.0.0, SVG Export Plug-In . SVG Version: 6.00 Build 0)  -->
<svg version="1.1" id="Capa_1" xmlns="http://www.w3.org/2000/svg" xmlns:xlink="http://www.w3.org/1999/xlink" x="0px" y="0px"
	 viewBox="0 0 512 512" style="enable-background:new 0 0 512 512;" xml:space="preserve">
<circle style="fill:#FFF2EB;" cx="256" cy="256" r="248.5"/>
<path style="fill:#E8DCD5;" d="M256,7.5c-5.038,0-10.036,0.168-15,0.464C371.256,15.721,474.5,123.795,474.5,256
	S371.256,496.279,241,504.036c4.964,0.296,9.962,0.464,15,0.464c137.243,0,248.5-111.257,248.5-248.5S393.243,7.5,256,7.5z"/>
<circle style="fill:#E6D0C2;" cx="256" cy="256" r="142.66"/>
<path style="fill:#DEC9BB;" d="M256,113.343c-5.066,0-10.07,0.269-15,0.784c71.736,7.497,127.657,68.152,127.657,141.874
	S312.736,390.377,241,397.874c4.93,0.515,9.934,0.784,15,0.784c78.788,0,142.657-63.87,142.657-142.657S334.788,113.343,256,113.343
	z"/>
<g>
	<path style="fill:#B1C4DE;" d="M193.947,428.942L193.947,428.942c-8.284,0-15-6.716-15-15v-224.5h30v224.5
		C208.947,422.227,202.231,428.942,193.947,428.942z"/>
	<path style="fill:#B1C4DE;" d="M320.053,428.942L320.053,428.942c-8.284,0-15-6.716-15-15v-224.5h30v224.5
		C335.053,422.227,328.337,428.942,320.053,428.942z"/>
</g>
<g>
	<path style="fill:#EF6161;" d="M178.947,273.811v140.132c0,8.284,6.716,15,15,15l0,0c8.284,0,15-6.716,15-15V273.811H178.947z"/>
	<path style="fill:#EF6161;" d="M305.053,273.811v140.132c0,8.284,6.716,15,15,15s15-6.716,15-15V273.811H305.053z"/>
</g>
<path style="fill:#D5E3F5;" d="M245.947,161.315c0,40.045-23.281,58.514-52,58.514s-52-18.469-52-58.514s23.281-86.502,52-86.502
	S245.947,121.27,245.947,161.315z"/>
<path style="fill:#B1C4DE;" d="M193.947,74.813c-5.215,0-10.25,1.539-15,4.286c21.405,12.382,37,49.443,37,82.216
	c0,32.771-15.596,51.085-37,56.659c4.751,1.237,9.784,1.855,15,1.855c28.719,0,52-18.469,52-58.514S222.666,74.813,193.947,74.813z"
	/>
<path style="fill:#D5E3F5;" d="M359.991,67.693L359.991,67.693c-5.557,0-10.062,3.888-10.062,8.685v56.144
	c0,4.723-4.436,8.551-9.907,8.551l0,0c-5.472,0-9.907-3.829-9.907-8.551V76.378c0-4.797-4.505-8.685-10.062-8.685l0,0
	c-5.557,0-10.062,3.888-10.062,8.685v56.144c0,4.723-4.436,8.551-9.907,8.551l0,0c-5.472,0-9.907-3.829-9.907-8.551V76.378
	c0-4.797-4.505-8.685-10.062-8.685l0,0c-5.557,0-10.062,3.888-10.062,8.685v100.294c0,23.835,22.386,43.158,50,43.158l0,0
	c27.614,0,50-19.322,50-43.158V76.378C370.053,71.581,365.548,67.693,359.991,67.693z"/>
<path style="fill:#B1C4DE;" d="M359.991,67.693c-5.557,0-10.062,3.888-10.062,8.685v56.144c0,4.714-4.419,8.535-9.876,8.55v35.6
	c0,19.324-14.715,35.679-35,41.179c4.736,1.284,9.773,1.979,15,1.979l0,0c27.614,0,50-19.323,50-43.158V76.378
	C370.053,71.581,365.548,67.693,359.991,67.693z"/>
<path d="M425.876,426.948C380.419,472.122,320.089,497,256,497c-64.374,0-124.894-25.068-170.413-70.587S15,320.374,15,256
	c0-52.15,16.382-101.778,47.376-143.521c2.469-3.326,1.775-8.023-1.55-10.493c-3.326-2.471-8.024-1.775-10.493,1.55
	C17.405,147.885,0,200.605,0,256c0,68.38,26.628,132.667,74.98,181.02C123.333,485.371,187.62,512,256,512
	c68.078,0,132.163-26.427,180.449-74.413c2.938-2.92,2.953-7.668,0.033-10.606C433.563,424.043,428.814,424.029,425.876,426.948z"/>
<path d="M437.02,74.981C388.667,26.628,324.38,0,256,0c-35.415,0-69.708,7.098-101.928,21.098
	C122.954,34.619,95.193,53.92,71.56,78.467c-2.873,2.984-2.783,7.732,0.201,10.604c2.984,2.873,7.731,2.783,10.604-0.201
	c22.253-23.114,48.39-41.287,77.684-54.015C190.372,21.68,222.655,15,256,15c64.374,0,124.894,25.068,170.413,70.587
	S497,191.626,497,256c0,54.054-17.483,105.132-50.56,147.713c-2.541,3.271-1.949,7.983,1.322,10.524
	c1.368,1.063,2.988,1.578,4.596,1.578c2.237,0,4.45-0.997,5.928-2.899C493.426,367.678,512,313.417,512,256
	C512,187.62,485.372,123.333,437.02,74.981z"/>
<path d="M171.447,380.104v33.838c0,12.407,10.093,22.5,22.5,22.5c5.04,0,9.699-1.666,13.454-4.476
	c5.49-4.107,9.05-10.659,9.05-18.027v-13.058c12.833,3.501,26.092,5.278,39.55,5.278c14.168,0,28.099-1.963,41.55-5.833v13.612
	c0,6.979,3.194,13.227,8.197,17.357c3.891,3.213,8.877,5.146,14.306,5.146c12.407,0,22.5-10.093,22.5-22.5v-35.226
	C382.456,350.544,406.16,304.977,406.16,256c0-31.99-9.885-62.422-28.607-88.181v-23.971c0-4.142-3.358-7.5-7.5-7.5
	s-7.5,3.358-7.5,7.5v32.823c0,19.662-19.065,35.658-42.5,35.658s-42.5-15.996-42.5-35.658V76.378c0-0.226,0.854-1.185,2.562-1.185
	s2.562,0.959,2.562,1.185v56.144c0,8.851,7.809,16.051,17.407,16.051s17.407-7.201,17.407-16.051v-8.693c0-0.004,0-0.009,0-0.013
	V76.378c0-0.226,0.854-1.185,2.562-1.185s2.562,0.959,2.562,1.185v56.144c0,0.879,0.098,1.736,0.246,2.577
	c0.023,0.187,0.056,0.373,0.093,0.558c0.009,0.042,0.015,0.084,0.024,0.125c0.067,0.309,0.149,0.614,0.255,0.911
	c1.999,6.831,8.758,11.88,16.79,11.88c0.143,0,0.282-0.017,0.424-0.02c0.028,0,0.055,0.007,0.083,0.007
	c0.284,0,0.563-0.019,0.839-0.05c8.969-0.638,16.06-7.557,16.06-15.988V76.378c0-0.226,0.854-1.185,2.562-1.185
	s2.562,0.959,2.562,1.185v35.471c0,4.142,3.358,7.5,7.5,7.5s7.5-3.358,7.5-7.5V76.378c0-8.924-7.878-16.185-17.562-16.185
	s-17.562,7.261-17.562,16.185l0.001,56.137c-0.02,0.08-0.139,0.247-0.361,0.425c-1.474-1.033-2.962-2.031-4.454-3V76.378
	c0-8.924-7.878-16.185-17.562-16.185s-17.562,7.261-17.562,16.185l0.001,36.801c-1.6-0.521-3.206-1.007-4.815-1.471v-35.33
	c0-8.924-7.878-16.185-17.562-16.185s-17.562,7.261-17.562,16.185v29.612c-7.131-0.305-14.391-0.099-21.565,0.611
	c-1.177-2.493-2.424-4.917-3.744-7.248c-11.698-20.661-27.074-32.039-43.296-32.039s-31.598,11.378-43.296,32.039
	c-10.146,17.92-16.204,41.084-16.204,61.963c0,2.113,0.078,4.177,0.202,6.212c-18.858,25.817-28.81,56.343-28.81,88.472
	C105.84,305.955,130.29,352.035,171.447,380.104z M302.492,129.049v3.467c-0.053,0.215-0.82,1.058-2.408,1.058
	s-2.355-0.843-2.407-1.051v-5.133C299.289,127.912,300.895,128.464,302.492,129.049z M193.947,227.33
	c2.561,0,5.059-0.145,7.503-0.402v39.383h-15v-39.382C188.893,227.185,191.388,227.33,193.947,227.33z M193.95,421.44
	c-4.136,0-7.5-3.364-7.5-7.5V281.311h14.997v132.632c0,2.584-1.313,4.866-3.307,6.215C196.943,420.967,195.501,421.44,193.95,421.44
	z M327.55,374.727c0,0.01,0,0.021,0,0.031v39.182c0,4.136-3.364,7.5-7.5,7.5c-1.809,0-3.47-0.644-4.767-1.714
	c-1.667-1.377-2.73-3.458-2.73-5.784V281.311h14.997V374.727z M374.945,191.766c10.642,19.615,16.215,41.481,16.215,64.234
	c0,40.417-17.943,78.25-48.607,103.811l-0.003-136.523c0-0.02,0,0.02,0,0l0,0C357.939,217.501,369.903,205.969,374.945,191.766z
	 M320.053,227.33c2.542,0,5.041-0.161,7.497-0.445v39.426h-15v-39.426C315.008,227.168,317.509,227.33,320.053,227.33z
	 M262.553,121.01v55.662c0,20.9,14.443,38.883,34.997,46.613v161.361c-13.377,4.321-27.328,6.514-41.55,6.514
	c-13.505,0-26.783-1.981-39.55-5.887V223.485c7.487-2.773,14.111-7.01,19.628-12.652c11.362-11.619,17.368-28.742,17.368-49.518
	c0-13.103-2.388-27.104-6.672-40.146C252.05,120.815,257.344,120.762,262.553,121.01z M193.947,82.313
	c13.254,0,26.656,14.419,35.238,34.422c0.169,0.594,0.404,1.156,0.702,1.675c5.28,12.901,8.56,27.956,8.56,42.906
	c0,16.775-4.527,30.271-13.093,39.03c-7.667,7.84-18.527,11.984-31.407,11.984s-23.741-4.144-31.407-11.984
	c-8.565-8.759-13.093-22.255-13.093-39.03C149.447,122.184,171.905,82.313,193.947,82.313z M151.815,210.833
	c5.519,5.644,12.145,9.881,19.635,12.654l0,0c0,0.023,0,0,0,0.023l-0.003,137.943C139.53,335.893,120.84,297.428,120.84,256
	c0-23.894,6.126-46.795,17.82-67.14C141.582,197.462,145.989,204.875,151.815,210.833z"/>
<g>
</g>
<g>
</g>
<g>
</g>
<g>
</g>
<g>
</g>
<g>
</g>
<g>
</g>
<g>
</g>
<g>
</g>
<g>
</g>
<g>
</g>
<g>
</g>
<g>
</g>
<g>
</g>
<g>
</g>
</svg>
